<?xml version="1.0" standalone="no"?>
<!DOCTYPE svg PUBLIC "-//W3C//DTD SVG 20010904//EN"
 "http://www.w3.org/TR/2001/REC-SVG-20010904/DTD/svg10.dtd">
<svg version="1.0" xmlns="http://www.w3.org/2000/svg"
 width="512.000000pt" height="512.000000pt" viewBox="0 0 512.000000 512.000000"
 preserveAspectRatio="xMidYMid meet">

<g transform="translate(0.000000,512.000000) scale(0.100000,-0.100000)"
fill="#000000" stroke="none">
<path d="M705 4894 c-103 -56 -115 -98 -115 -400 l0 -232 -182 -4 c-159 -3
-189 -7 -229 -25 -60 -27 -125 -92 -153 -152 l-21 -46 0 -1805 0 -1805 23 -46
c27 -55 83 -113 137 -142 l40 -22 922 -3 921 -2 21 26 c12 15 21 33 21 40 0
22 -22 63 -39 71 -9 4 -422 10 -918 13 l-901 5 -27 25 c-58 53 -55 -27 -55
1470 l0 1380 2040 0 2040 0 0 -640 0 -641 25 -24 c29 -30 64 -32 96 -6 l24 19
5 645 5 644 294 -1358 c223 -1030 292 -1366 287 -1393 -4 -19 -18 -49 -33 -66
-49 -58 -58 -60 -338 -60 l-256 0 18 33 c17 29 18 80 21 650 l3 617 -25 25
c-32 32 -70 32 -101 0 l-25 -24 0 -593 c0 -661 2 -638 -69 -685 l-34 -23 -878
0 c-583 0 -887 -3 -905 -10 -56 -22 -71 -80 -31 -118 l23 -22 1265 0 c1451 0
1322 -9 1425 94 51 52 63 71 78 126 12 44 16 81 12 115 -3 27 -161 768 -351
1645 -190 877 -359 1659 -375 1738 -34 161 -44 186 -102 244 -72 72 -107 82
-315 86 l-183 4 0 227 c0 124 -5 246 -11 271 -13 57 -50 105 -100 131 -37 19
-55 20 -218 17 -169 -3 -179 -4 -213 -27 -19 -13 -46 -40 -59 -59 -24 -35 -24
-39 -27 -299 l-3 -263 -329 0 -330 0 0 252 c0 236 -1 254 -21 296 -13 26 -38
54 -62 70 -40 26 -45 27 -218 30 -160 3 -181 1 -216 -16 -43 -23 -64 -43 -87
-89 -13 -27 -16 -72 -16 -288 l0 -255 -330 0 -329 0 -3 263 c-3 259 -3 262
-27 298 -14 20 -41 47 -60 60 -33 23 -43 24 -215 26 -151 2 -186 0 -211 -13z
m353 -146 c9 -9 12 -124 12 -454 l0 -443 -22 -15 c-17 -12 -50 -16 -145 -16
-110 0 -125 2 -143 20 -19 19 -20 33 -20 451 0 277 4 437 10 450 10 17 23 19
153 19 98 0 147 -4 155 -12z m1280 0 c9 -9 12 -125 12 -460 l0 -448 -26 -10
c-33 -13 -235 -13 -268 0 l-26 10 0 448 c0 335 3 451 12 460 17 17 279 17 296
0z m1292 -7 c6 -13 10 -173 10 -450 0 -418 -1 -432 -20 -451 -18 -18 -33 -20
-143 -20 -95 0 -128 4 -145 16 l-22 15 0 443 c0 330 3 445 12 454 8 8 57 12
155 12 130 0 143 -2 153 -19z m-3038 -778 c4 -164 11 -187 72 -241 48 -42 120
-55 282 -50 125 3 134 5 179 33 32 20 56 45 72 74 21 40 23 57 23 188 l0 143
328 -2 327 -3 5 -150 c6 -166 14 -194 73 -239 45 -34 103 -46 237 -46 134 0
192 12 237 46 59 45 67 73 73 239 l5 150 327 3 328 2 0 -143 c0 -131 2 -148
23 -188 16 -29 40 -54 72 -74 45 -28 54 -30 179 -33 169 -5 234 7 287 55 54
49 69 105 69 260 l0 123 157 0 c185 0 229 -13 263 -81 19 -35 20 -60 20 -339
l0 -300 -2040 0 -2040 0 0 303 c0 347 1 354 80 395 40 20 58 22 201 22 l157 0
4 -147z"/>
<path d="M2045 2833 c-72 -11 -190 -46 -264 -77 -230 -97 -444 -312 -541 -543
-60 -143 -75 -223 -75 -403 0 -141 4 -177 23 -250 102 -375 380 -654 750 -752
117 -31 329 -35 452 -10 209 43 369 130 521 281 100 101 151 170 208 286 115
234 134 527 48 772 l-21 62 32 45 c47 66 62 108 62 177 0 86 -17 133 -68 191
-66 73 -110 92 -208 93 -64 0 -91 -5 -131 -24 l-51 -24 -60 37 c-158 96 -304
137 -502 141 -80 2 -158 1 -175 -2z m313 -158 c88 -18 183 -53 262 -97 30 -17
57 -32 58 -33 2 -2 -101 -125 -228 -274 l-232 -270 -49 59 c-86 103 -146 135
-250 134 -112 0 -196 -53 -252 -158 -30 -56 -31 -193 -3 -246 10 -19 91 -129
179 -244 167 -217 206 -254 292 -277 58 -16 143 -5 204 25 45 23 93 75 368
396 173 204 319 370 323 370 28 0 49 -269 30 -388 -54 -338 -310 -624 -640
-714 -111 -30 -347 -32 -450 -4 -256 70 -468 248 -579 488 -54 114 -71 184
-78 318 -11 217 40 392 163 566 122 172 354 319 558 353 84 14 242 12 324 -4z
m699 -159 c46 -50 48 -118 4 -177 -14 -19 -194 -232 -400 -472 -378 -441 -394
-457 -458 -457 -59 0 -89 29 -248 237 -145 188 -159 210 -163 254 -6 66 22
111 85 135 72 28 112 9 191 -91 106 -133 110 -136 151 -133 34 3 53 23 337
353 165 193 316 361 335 373 28 19 43 23 83 19 41 -4 55 -11 83 -41z"/>
</g>
</svg>
